# xmcd
# Copyright (C) 1995-1998 Ti Kan
#
# Track frame offsets:
#       150
#       17026
#       36354
#       51422
#       69856
#       91172
#       106377
#       128658
#       141451
#       169076
#       184990
#       203634
#       219220
#       235873
#
# Disc length: 3206 seconds
#
# Revision: 0
# Processed by: cddbd v1.5.2PL0 Copyright (c) Steve Scherf et al.
# Submitted via: CD-Transfer v1.0
#
DISCID=c20c840e
DTITLE=Melatonin - Le Quart D'heure Américain
DYEAR=06
DGENRE=
TTITLE0=Minoritaire
TTITLE1=Vingt Ans
TTITLE2=Fais Attention
TTITLE3=Génération Silicium
TTITLE4=Crache Ton Venin
TTITLE5=Temps Modernes
TTITLE6=Parenthèse (Sur Le Sujet)
TTITLE7=Malibu
TTITLE8=Dolce Vita
TTITLE9=Berlin
TTITLE10=Le Quart D'heure Américain
TTITLE11=Rx's Project
TTITLE12=Idées Noires
TTITLE13=Frontière
EXTD=
EXTT0=
EXTT1=
EXTT2=
EXTT3=
EXTT4=
EXTT5=
EXTT6=
EXTT7=
EXTT8=
EXTT9=
EXTT10=
EXTT11=
EXTT12=
EXTT13=
PLAYORDER=
